PathFileType	4	(X/Y/Z)	RBDS010static.trc
DataRate	CameraRate	NumFrames	NumMarkers	Units	OrigDataRate	OrigDataStartFrame	OrigNumFrames
150.000000	150.000000	4	48	mm	150.000000	131	150
Frame#	Time	L.Ankle			L.Ankle.Medial			L.ASIS			L.GTR			L.Heel.Bottom			L.Heel.Lateral			L.Heel.Top			L.HF			L.Iliac.Crest			L.Knee			L.Knee.Medial			L.MT1			L.MT2			L.MT5			L.PSIS			L.Shank.Bottom.Lateral			L.Shank.Bottom.Medial			L.Shank.Top.Lateral			L.Shank.Top.Medial			L.Thigh.Bottom.Lateral			L.Thigh.Bottom.Medial			L.Thigh.Top.Lateral			L.Thigh.Top.Medial			L.TT			R.Ankle			R.Ankle.Medial			R.ASIS			R.GTR			R.Heel.Bottom			R.Heel.Lateral			R.Heel.Top			R.HF			R.Iliac.Crest			R.Knee			R.Knee.Medial			R.MT1			R.MT2			R.MT5			R.PSIS			R.Shank.Bottom.Lateral			R.Shank.Bottom.Medial			R.Shank.Top.Lateral			R.Shank.Top.Medial			R.Thigh.Bottom.Lateral			R.Thigh.Bottom.Medial			R.Thigh.Top.Lateral			R.Thigh.Top.Medial			R.TT			
		X1	Y1	Z1	X2	Y2	Z2	X3	Y3	Z3	X4	Y4	Z4	X5	Y5	Z5	X6	Y6	Z6	X7	Y7	Z7	X8	Y8	Z8	X9	Y9	Z9	X10	Y10	Z10	X11	Y11	Z11	X12	Y12	Z12	X13	Y13	Z13	X14	Y14	Z14	X15	Y15	Z15	X16	Y16	Z16	X17	Y17	Z17	X18	Y18	Z18	X19	Y19	Z19	X20	Y20	Z20	X21	Y21	Z21	X22	Y22	Z22	X23	Y23	Z23	X24	Y24	Z24	X25	Y25	Z25	X26	Y26	Z26	X27	Y27	Z27	X28	Y28	Z28	X29	Y29	Z29	X30	Y30	Z30	X31	Y31	Z31	X32	Y32	Z32	X33	Y33	Z33	X34	Y34	Z34	X35	Y35	Z35	X36	Y36	Z36	X37	Y37	Z37	X38	Y38	Z38	X39	Y39	Z39	X40	Y40	Z40	X41	Y41	Z41	X42	Y42	Z42	X43	Y43	Z43	X44	Y44	Z44	X45	Y45	Z45	X46	Y46	Z46	X47	Y47	Z47	X48	Y48	Z48	

132	0.8733333333333334	710.3982543945313	102.0566329956055	1038.435913085938	728.3607788085938	118.189323425293	1118.303466796875	810.740478515625	981.3944091796875	1091.114135742188	703.0672607421875	892.2036743164063	1043.685791015625	637.5125732421875	39.60210418701172	1083.017822265625	666.5109252929688	56.26581954956055	1038.407470703125	647.3898315429688	90.25419616699219	1084.250122070313	694.593994140625	448.7710266113281	1029.025512695313	761.5538940429688	1065.888671875	1061.403564453125	691.0068969726563	512.223876953125	1033.332763671875	715.2279052734375	495.4090576171875	1157.409912109375	851.7764892578125	55.99802398681641	1125.265502929688	864.37451171875	69.37603759765625	1079.638916015625	828.9974365234375	50.97323608398438	1011.154357910156	643.1611328125	1028.542846679688	1166.198608398438	683.4791259765625	171.3046417236328	1034.422973632813	655.8933715820313	170.4524383544922	1080.81591796875	669.2352905273438	249.620849609375	1025.40625	641.3611450195313	249.7359924316406	1071.7265625	692.6488037109375	597.9193725585938	1026.137939453125	643.8184814453125	589.1065063476563	1079.299194335938	673.7740478515625	706.3515014648438	1030.281616210938	629.517333984375	698.7994995117188	1082.02294921875	754.7651977539063	430.6286926269531	1065.825561523438	706.4122924804688	115.8083953857422	1402.771240234375	724.65966796875	120.276496887207	1320.080932617188	814.8427124023438	977.8067016601563	1322.115844726563	713.6220703125	886.6732177734375	1377.348266601563	632.5699462890625	40.52423477172852	1369.158081054688	660.886962890625	61.49121856689453	1412.316040039063	641.7921752929688	89.12495422363281	1367.49365234375	718.734130859375	445.5081481933594	1394.628051757813	747.4573974609375	1058.292602539063	1360.091064453125	718.5859985351563	510.3354187011719	1389.832153320313	733.5828247070313	491.0354919433594	1266.987060546875	842.4532470703125	57.99528503417969	1323.592041015625	859.5567016601563	73.14751434326172	1374.183959960938	824.28173828125	50.88986968994141	1438.188232421875	645.4238891601563	1028.194580078125	1262.890625	696.4732666015625	188.1072387695313	1408.331787109375	657.6351928710938	187.9172821044922	1374.918090820313	690.7430419921875	272.7464294433594	1411.94091796875	650.8270874023438	268.3796691894531	1376.247192382813	714.4652709960938	611.298095703125	1396.32568359375	660.5875244140625	603.1073608398438	1346.263061523438	697.4248046875	719.685791015625	1392.577758789063	647.11376953125	713.1981811523438	1345.698120117188	778.7111206054688	436.9304504394531	1358.068115234375	
133	0.88	710.3990478515625	102.0607986450195	1038.427978515625	728.3646850585938	118.187744140625	1118.302490234375	810.7064208984375	981.3986206054688	1091.130737304688	703.0296630859375	892.200439453125	1043.699951171875	637.512939453125	39.60282516479492	1083.009399414063	666.5042724609375	56.25930404663086	1038.403930664063	647.376953125	90.25373077392578	1084.248413085938	694.5970458984375	448.7707214355469	1029.021606445313	761.5245971679688	1065.881591796875	1061.413208007813	690.999755859375	512.21630859375	1033.338623046875	715.2093505859375	495.4356994628906	1157.426635742188	851.76220703125	55.99449157714844	1125.265502929688	864.3729248046875	69.37953948974609	1079.638427734375	828.9964599609375	50.98225402832031	1011.147705078125	643.1233520507813	1028.5400390625	1166.222290039063	683.4759521484375	171.312744140625	1034.41259765625	655.8994140625	170.4555053710938	1080.824584960938	669.224365234375	249.6201324462891	1025.406982421875	641.35009765625	249.7286224365234	1071.723022460938	692.6270141601563	597.91748046875	1026.1376953125	643.7996826171875	589.0990600585938	1079.311157226563	673.7401733398438	706.3500366210938	1030.292724609375	629.4895629882813	698.7953491210938	1082.029052734375	754.7681274414063	430.6367797851563	1065.832641601563	706.4141235351563	115.8037414550781	1402.7763671875	724.6488647460938	120.2653198242188	1320.09912109375	814.7879638671875	977.8114624023438	1322.137329101563	713.5855712890625	886.6700439453125	1377.344360351563	632.5730590820313	40.52399444580078	1369.157104492188	660.8897094726563	61.49319458007813	1412.318115234375	641.791259765625	89.12836456298828	1367.501098632813	718.7109375	445.5082092285156	1394.635620117188	747.4083251953125	1058.28515625	1360.089599609375	718.5618896484375	510.3308410644531	1389.844482421875	733.5751342773438	491.032470703125	1267.001098632813	842.4475708007813	57.99729156494141	1323.605346679688	859.5574951171875	73.14399719238281	1374.170288085938	824.2811889648438	50.88785934448242	1438.187133789063	645.38427734375	1028.188720703125	1262.904174804688	696.4634399414063	188.1104278564453	1408.337036132813	657.638427734375	187.9081115722656	1374.906860351563	690.7235717773438	272.7445678710938	1411.944213867188	650.820068359375	268.3706665039063	1376.24169921875	714.4341430664063	611.2999877929688	1396.34033203125	660.5527954101563	603.1067504882813	1346.28271484375	697.3870239257813	719.6871337890625	1392.588012695313	647.0810546875	713.19140625	1345.715209960938	778.7075805664063	436.9426879882813	1358.101928710938	
134	0.8866666666666667	710.397216796875	102.0602340698242	1038.428100585938	728.3561401367188	118.1938095092773	1118.307739257813	810.6634521484375	981.394775390625	1091.151611328125	702.9874267578125	892.203125	1043.699462890625	637.509765625	39.59708404541016	1083.0107421875	666.4988403320313	56.2556266784668	1038.40771484375	647.3790283203125	90.24775695800781	1084.239379882813	694.57763671875	448.7793884277344	1029.013671875	761.4722900390625	1065.868896484375	1061.414794921875	690.9900512695313	512.2193603515625	1033.324951171875	715.1905517578125	495.42333984375	1157.443115234375	851.767333984375	55.99688720703125	1125.262329101563	864.3737182617188	69.38319396972656	1079.640258789063	828.99560546875	50.97582244873047	1011.148315429688	643.0862426757813	1028.538330078125	1166.234008789063	683.4631958007813	171.3133392333984	1034.421508789063	655.8999633789063	170.4463043212891	1080.826171875	669.2177124023438	249.6159820556641	1025.410034179688	641.3406372070313	249.7214508056641	1071.737182617188	692.6048583984375	597.9227294921875	1026.141235351563	643.7835693359375	589.090087890625	1079.307373046875	673.71630859375	706.3440551757813	1030.300537109375	629.4668579101563	698.7845458984375	1082.036376953125	754.7657470703125	430.6395568847656	1065.838134765625	706.4086303710938	115.7913970947266	1402.78564453125	724.6453857421875	120.279411315918	1320.091796875	814.7517700195313	977.8126220703125	1322.1455078125	713.5517578125	886.675048828125	1377.366088867188	632.5648193359375	40.51643753051758	1369.177734375	660.88916015625	61.48663330078125	1412.31640625	641.789306640625	89.12650299072266	1367.505981445313	718.697265625	445.5101318359375	1394.662963867188	747.36572265625	1058.294067382813	1360.09716796875	718.537109375	510.3363647460938	1389.857055664063	733.5480346679688	491.0234985351563	1267.019287109375	842.4548950195313	57.99284744262695	1323.61572265625	859.5570068359375	73.15599822998047	1374.190551757813	824.2680053710938	50.89565658569336	1438.197875976563	645.339599609375	1028.185302734375	1262.9130859375	696.4533081054688	188.1097259521484	1408.337768554688	657.6282958984375	187.9002685546875	1374.912109375	690.7037963867188	272.7467346191406	1411.949462890625	650.8016967773438	268.3689575195313	1376.248291015625	714.410888671875	611.2921142578125	1396.341552734375	660.5254516601563	603.0975341796875	1346.28466796875	697.350341796875	719.681640625	1392.591918945313	647.0510864257813	713.1849365234375	1345.72705078125	778.6904296875	436.9502258300781	1358.127807617188	
135	0.8933333333333334	710.3926391601563	102.060302734375	1038.412231445313	728.3628540039063	118.1824188232422	1118.3017578125	810.623291015625	981.3961791992188	1091.164306640625	702.958251953125	892.2098388671875	1043.716552734375	637.5077514648438	39.59173583984375	1083.009643554688	666.5020141601563	56.24655532836914	1038.399658203125	647.3836059570313	90.24781799316406	1084.246459960938	694.5895385742188	448.7749633789063	1029.005737304688	761.4296875	1065.862915039063	1061.421508789063	690.9839477539063	512.2210693359375	1033.3310546875	715.1871337890625	495.3985290527344	1157.41162109375	851.7611694335938	56.00090408325195	1125.269409179688	864.3746948242188	69.38085174560547	1079.642211914063	828.9998779296875	50.97850799560547	1011.145446777344	643.0436401367188	1028.531372070313	1166.23486328125	683.4567260742188	171.3126373291016	1034.413452148438	655.8964233398438	170.4431457519531	1080.83251953125	669.1951904296875	249.6252593994141	1025.41064453125	641.3308715820313	249.7161102294922	1071.73291015625	692.5819091796875	597.9203491210938	1026.143188476563	643.7721557617188	589.0808715820313	1079.3037109375	673.6879272460938	706.3445434570313	1030.307739257813	629.4434204101563	698.7785034179688	1082.04150390625	754.752197265625	430.6392211914063	1065.832763671875	706.4091186523438	115.7929382324219	1402.792114257813	724.65576171875	120.2677764892578	1320.104614257813	814.7059936523438	977.822998046875	1322.1552734375	713.5185546875	886.6631469726563	1377.386962890625	632.5723266601563	40.51525115966797	1369.170654296875	660.885986328125	61.4808464050293	1412.324584960938	641.790283203125	89.11530303955078	1367.512329101563	718.6763305664063	445.5134582519531	1394.67578125	747.3334350585938	1058.301879882813	1360.106201171875	718.5274047851563	510.326171875	1389.865600585938	733.5421752929688	491.0101928710938	1267.020141601563	842.4533081054688	57.99296951293945	1323.607543945313	859.5506591796875	73.15278625488281	1374.1865234375	824.2727661132813	50.89144134521484	1438.191162109375	645.30419921875	1028.1806640625	1262.916748046875	696.4457397460938	188.1013336181641	1408.338256835938	657.6223754882813	187.8969268798828	1374.905639648438	690.6918334960938	272.7328186035156	1411.95068359375	650.7939453125	268.3611450195313	1376.240600585938	714.3890991210938	611.2990112304688	1396.359130859375	660.4947509765625	603.0927124023438	1346.292724609375	697.3171997070313	719.6831665039063	1392.60498046875	647.0277099609375	713.173828125	1345.732421875	778.6702880859375	436.9332275390625	1358.126342773438	
